<?xml version="1.0" encoding="utf-8"?>
<svg xmlns="http://www.w3.org/2000/svg" height="48" width="48" viewBox="0 0 48 48">
  <g>
    <path id="path1" transform="rotate(0,24,24) translate(11,12.2593743801117) scale(0.8125,0.8125)  " fill="#FFFFFF" d="M6.1000061,21.499999C5.6000061,21.499999 5.2000122,21.900001 5.2000122,22.400001 5.2000122,22.900001 5.6000061,23.300002 6.1000061,23.300002L26.200012,23.300002C26.700012,23.300002 27.100006,22.900001 27.100006,22.400001 27.100006,21.900001 26.700012,21.499999 26.200012,21.499999z M6.1000061,16.3C5.6000061,16.3 5.2000122,16.700002 5.2000122,17.200002 5.2000122,17.700002 5.6000061,18.100005 6.1000061,18.100005L26.200012,18.100005C26.700012,18.100005 27.100006,17.700002 27.100006,17.200002 27.100006,16.700002 26.700012,16.3 26.200012,16.3z M6.1000061,10.8C5.6000061,10.8 5.2000122,11.200002 5.2000122,11.700002 5.2000122,12.200002 5.6000061,12.600003 6.1000061,12.600003L26.200012,12.600003C26.700012,12.600003 27.100006,12.200002 27.100006,11.700002 27.100006,11.200002 26.700012,10.8 26.200012,10.8z M3.3000183,5.7000014L28.700012,5.7000014C30.5,5.7000014,32,7.2000014,32,9.0000011L32,25.600005C32,27.400001,30.5,28.900001,28.700012,28.900001L3.3000183,28.900001C1.5,28.900001,0,27.400001,0,25.600005L0,9.0000011C0,7.2000014,1.5,5.7000014,3.3000183,5.7000014z M16,0C18.399994,-1.2063379E-07 20.700012,0.59999842 22.899994,1.7999992 23.5,2.0999986 23.700012,2.7999994 23.399994,3.5000004 23.100006,4.2000014 22.5,4.3999983 21.899994,4.0999991 20,3.0000001 18,2.5000001 16,2.4999999 14,2.5000001 12,3.0000001 10.100006,4.0000001 9.5,4.2999998 8.8999939,4.0000001 8.6000061,3.3999981 8.3000183,2.7999994 8.6000061,2.0000001 9.1000061,1.7000008 11.300018,0.59999842 13.600006,-1.2063379E-07 16,0z" />
  </g>
</svg>

