<?xml version="1.0" encoding="utf-8"?>
<svg xmlns="http://www.w3.org/2000/svg" height="48" width="48" viewBox="0 0 48 48">
  <g>
    <path id="path1" transform="rotate(0,24,24) translate(11,14.141534268856) scale(0.8125,0.8125)  " fill="#FFFFFF" d="M18.5,16.30006C18.5,16.30006 23.700012,24.100069 29.200012,16.60005 29.200012,16.500044 24.100006,20.100059 18.5,16.30006z M9,10.600034C9,10.600034 7.3000183,11.800049 6.7000122,12.200045 6.2000122,12.500032 4.4000244,13.200047 4.4000244,13.200047 5,14.400032 6.6000061,14.800057 7.8000183,14.000037 9.1000061,13.300054 9.6000061,11.800049 9,10.600034z M27.900024,7.5000195C26.400024,7.5000195 25.300018,8.600029 25.300018,9.9000196 25.300018,9.9000196 27.200012,9.7000379 27.800018,9.7000379 28.5,9.7000379 30.600006,9.9000196 30.600006,9.9000196 30.5,8.600029 29.400024,7.5000195 27.900024,7.5000195z M19.700012,7.5000195C18.200012,7.5000195 17.100006,8.600029 17.100006,9.9000196 17.100006,9.9000196 19,9.7000379 19.600006,9.7000379 20.300018,9.7000379 22.400024,9.9000196 22.400024,9.9000196 22.300018,8.600029 21.100006,7.5000195 19.700012,7.5000195z M15.900024,0.80000494C15.900024,0.80000518 21.800018,1.7000015 23.700012,1.7000012 25.800018,1.7000015 32,0.80000518 32,0.80000494L32,2.7000041 32,15.100046C32,19.600058 28.400024,23.200073 23.900024,23.200073 19.400024,23.200073 15.800018,19.600058 15.800018,15.100046L15.800018,2.6000128C15.800018,2.4000156,15.900024,1.0000026,15.900024,0.80000494z M14,0C14,0.10000638,14.200012,0.30000387,14.300018,0.50000141L14.300018,0.60000752 14.300018,2.6000128 14.300018,7.8000388C14,8.000021 13.900024,8.1000271 13.800018,8.1000271 13.300018,8.4000158 11.5,9.1000299 11.5,9.1000299 12,10.000027 13.200012,10.400022 14.200012,10.200039L14.200012,15.000039 14.200012,15.900036 14.200012,16.200054 14.100006,16.30006C11.300018,17.900042 11,22.100063 11,22.100063 11.900024,20.200066 13.100006,18.900043 14.400024,18.100054L14.600006,18.000048 14.700012,18.20006C15.400024,20.100059,16.700012,21.800076,18.400024,22.900055L18.5,22.900055 18.400024,23.000061C18.300018,23.100067 18.200012,23.100067 18,23.200073 14.100006,25.400061 9.2000122,24.100069 7,20.200066L0.90002441,9.6000309C0.80001831,9.4000187 0.1000061,8.2000341 0,8.000021 0,8.000021 5.6000061,5.9000096 7.2000122,4.9000068 9,3.9000194 14,1.8793799E-08 14,0z" />
  </g>
</svg>

