<?xml version="1.0" encoding="utf-8"?>
<svg xmlns="http://www.w3.org/2000/svg" height="48" width="48" viewBox="0 0 48 48">
  <g>
    <path id="path1" transform="rotate(0,24,24) translate(12.7009688615799,11) scale(0.8125,0.8125)  " fill="#FFFFFF" d="M25.918997,8.8719788L26.317997,8.8719788C27.115993,8.8719788,27.813,9.5700073,27.813,10.367981L27.813,20.036987C27.813,20.834991,27.713993,22.130981,27.015995,23.127991L22.529997,28.809998 22.529997,32 14.853998,32 14.853998,23.22699 19.738996,17.046997C20.336996,16.348999 21.233999,16.248993 21.831999,16.747986 22.429998,17.246002 22.529997,18.242981 21.931997,18.940979L18.442999,23.326996 21.233999,23.326996 24.323995,19.438995 24.323995,10.566986C24.424002,9.5700073,25.122,8.8719788,25.918997,8.8719788z M1.3959999,8.8719788L1.795002,8.8719788C2.5919989,8.8719788,3.2900005,9.5700073,3.2900005,10.367981L3.2900005,19.23999 6.3800005,23.127991 9.1719998,23.127991 5.6830019,18.740997C5.083999,18.044006 5.1840013,17.046997 5.7820009,16.548004 6.3800005,16.049988 7.3769983,16.248993 7.8759988,16.846985L12.760001,23.027985 12.760001,31.800995 5.2839998,31.800995 5.2839998,28.610992 0.79800033,22.928009C0.10000241,21.931,1.2882356E-07,20.634979,0,19.837982L0,10.167999C1.2882356E-07,9.5700073,0.59799962,8.8719788,1.3959999,8.8719788z M20.636,5.2829895L20.636,13.955994 14.455,18.441986 14.455,9.7689819z M7.0779985,5.2829895L13.258998,9.7689819 13.258998,18.441986 7.0779985,13.955994z M13.857001,0L20.136999,4.4859924 13.857001,9.071991 7.5769991,4.4859924z" />
  </g>
</svg>

