<?xml version="1.0" encoding="utf-8"?>
<svg xmlns="http://www.w3.org/2000/svg" height="48" width="48" viewBox="0 0 48 48">
  <g>
    <path id="path1" transform="rotate(0,24,24) translate(11,11.0812503099442) scale(0.8125,0.8125)  " fill="#FFFFFF" d="M8.9000244,16.199995L8.9000244,20.199995 12.900024,20.199995 12.900024,16.199995z M2.6000366,16.100004L2.6000366,20.100004 6.6000366,20.100004 6.6000366,16.100004z M17.600037,13.400007L32,13.400007 32,31.799999 27.900024,31.799999 27.900024,22.499998 22.100037,22.499998 22.100037,31.799999 17.600037,31.799999z M8.9000244,9.8000022L8.9000244,13.800001 12.900024,13.800001 12.900024,9.8000022z M2.6000366,9.6999961L2.6000366,13.699995 6.6000366,13.699995 6.6000366,9.6999961z M17.600037,9.6000052L32,9.6000052 32,11.499998 17.600037,11.499998z M8.9000244,3.4000088L8.9000244,7.4000083 12.900024,7.4000083 12.900024,3.4000088z M2.6000366,3.3000026L2.6000366,7.3000022 6.6000366,7.3000022 6.6000366,3.3000026z M0,0L15.5,0 15.5,31.799999 0,31.799999z" />
  </g>
</svg>

