<?xml version="1.0" encoding="utf-8"?>
<svg xmlns="http://www.w3.org/2000/svg" height="48" width="48" viewBox="0 0 48 48">
  <g>
    <path id="path1" transform="rotate(0,24,24) translate(14.0176193714142,11) scale(0.8125,0.8125)  " fill="#FFFFFF" d="M20.183358,23.326996C22.276337,25.021973 23.572304,27.413971 23.572304,30.105988 23.572304,30.703979 23.4723,31.401978 23.373303,32L1.4417266,32C1.3426989,31.401978 1.2427251,30.803986 1.2427253,30.105988 1.2427251,27.513977 2.5386914,25.120972 4.532643,23.426971 5.9276373,25.021973 7.8215844,26.217987 10.014568,26.71698L10.313543,26.815979 12.407499,29.70697 14.301477,26.815979 14.401481,26.815979C16.69444,26.317993,18.687384,25.021973,20.183358,23.326996z M18.388409,14.254974C17.990405,17.944 16.195456,17.944 16.195456,17.944 13.902498,18.242981 13.005511,15.65097 13.005511,15.65097 12.507504,14.952972 11.709514,15.750977 11.709514,15.750977 10.214546,18.840973 8.0215928,17.744995 8.0215928,17.744995 6.5256182,17.245972 6.2266123,14.35498 6.2266123,14.35498 5.8276331,14.35498 4.6316401,15.451996 4.6316401,15.451996 4.9306461,16.049988 5.8276331,16.049988 5.8276331,16.049988 6.6256224,19.638977 8.6195742,21.332977 9.2175547,21.83197L9.3175599,21.731995C10.014568,21.233978 11.011529,20.834991 12.208528,20.834991 13.40449,20.834991 14.500478,21.233978 15.198464,21.83197L15.298468,21.931C18.488413,19.837982 18.787388,16.049988 18.787388,16.049988 19.684374,16.149994 19.98338,15.35199 19.98338,15.35199 19.684374,14.952972 18.388409,14.254974 18.388409,14.254974z M10.712554,1.6949768C9.7155625,2.8909912 11.510544,4.4859924 11.510544,4.4859924 12.208528,5.2829895 12.208528,5.8819885 12.208528,5.8819885 12.108524,7.0779724 10.712554,6.4799805 10.712554,6.4799805 10.313543,6.0809937 9.3175599,5.9809875 9.3175599,5.9809875 8.7185713,5.9809875 7.1235992,6.9779968 7.1235992,6.9779968 5.8276331,7.7759705 5.9276373,6.4799805 5.9276373,6.4799805 6.0276415,5.5829773 7.6226136,4.8849792 7.6226136,4.8849792 8.6195742,4.5859985 8.3205992,3.4889832 8.3205992,3.4889832 8.1205899,2.8909912 8.1205899,2.3929749 8.220595,2.0929871L8.1205899,2.0929871C8.1205899,2.0929871,5.7286355,2.2929993,4.1336633,7.4769897L3.3356742,8.473999C3.335674,8.473999 4.7316448,10.267975 6.3266165,9.3709717 6.3266165,9.3709717 8.220595,7.875 8.51957,9.17099 8.51957,9.17099 8.51957,11.563995 4.2326609,11.363983 4.2326609,11.363983 2.5386914,11.064972 1.9407105,12.161987L1.8407063,14.35498 3.3356742,14.35498C3.335674,14.35498,4.6316401,12.460999,6.9245979,12.460999L13.304486,12.460999 13.40449,12.460999 13.40449,12.360992C13.40449,11.862976 13.304486,10.765991 11.609541,9.3709717 11.609541,9.3709717 10.712554,8.1739807 12.208528,7.9749756 12.208528,7.9749756 13.504494,8.3739929 13.803501,8.8719788 13.803501,8.8719788 14.999463,9.9689941 15.89645,8.9719849 15.89645,8.9719849 18.98639,7.5759888 19.98338,10.566986 19.98338,10.566986 19.884383,11.563995 18.787388,11.164978 18.787388,11.164978 16.893441,9.868988 15.597443,12.261993L15.49747,12.360992 18.28941,12.360992C18.28941,12.360992,20.581362,12.659973,21.18035,14.454987L22.675318,14.454987C22.675318,14.454987,22.87432,9.868988,20.382359,7.5759888L19.585377,5.3829956 19.485373,5.4829712C18.787388,6.4799805 17.491421,5.4829712 17.491421,5.4829712 16.893441,4.9839783 15.996454,5.9809875 15.996454,5.9809875 14.700457,7.2769775 14.500478,6.1809998 14.500478,6.1809998 13.902498,4.5859985 15.796446,3.88797 15.796446,3.88797 16.793437,3.7879944 17.192416,3.0899963 17.391417,2.59198L17.391417,2.4919739C17.192416,2.3929749 16.893441,2.2929993 16.69444,2.1929932 16.594435,2.2929993 14.102476,1.6949768 11.709514,1.6949768L10.912532,1.6949768z M12.706505,0C15.099467,0 20.781371,0.69799805 21.977332,6.6789856 21.977332,6.6789856 24.669299,8.2739868 24.569295,15.550995 24.569295,15.550995 24.46929,16.248993 23.771306,16.348999L21.578353,16.348999C21.578353,16.348999 20.781371,17.544983 20.183358,17.644989 20.183358,17.644989 19.884383,20.734985 15.996454,23.924988L15.996454,24.024994C15.597443,25.021973 14.102476,25.819 12.307525,25.819 10.214546,25.819 8.51957,24.722992 8.51957,23.426971L8.51957,23.326996C7.9215886,22.927979 5.7286355,21.53299 4.532643,17.544983 4.532643,17.544983 3.6346797,17.046997 3.1366724,16.248993L0.84371506,16.248993C0.843715,16.248993 0.24573395,16.049988 0.046732298,15.65097 0.046732447,15.65097 -0.55225565,9.7689819 2.5386914,6.7789917 2.5386914,6.7789917 3.5356824,-0.19900513 11.510544,0.099975586 11.510544,0.099975586 12.00852,0 12.706505,0z" />
  </g>
</svg>

