<?xml version="1.0" encoding="utf-8"?>
<svg xmlns="http://www.w3.org/2000/svg" height="48" width="48" viewBox="0 0 48 48">
  <g>
    <path id="path1" transform="rotate(0,24,24) translate(11,12.7440309524536) scale(0.8125,0.8125)  " fill="#FFFFFF" d="M25.026978,0C26.416016,0 27.54303,0.89199829 27.54303,1.9880066 27.54303,3.0840149 26.416016,3.9750061 25.026978,3.9750061 24.737976,3.9750061 24.453979,3.9330139 24.192993,3.8610229L21.96698,6.9850159C24.659973,8.25 26.466003,10.574005 26.466003,13.229004 26.466003,14.912018 25.73999,16.459015 24.523987,17.693024L26.370972,19.304016C26.973022,18.881012 27.757019,18.623016 28.622009,18.623016 30.484009,18.623016 32,19.820007 32,21.292023 32,22.768005 30.484009,23.959015 28.622009,23.959015 26.755981,23.959015 25.237976,22.768005 25.237976,21.292023 25.237976,20.747009 25.447998,20.243011 25.801025,19.820007L23.950989,18.212006C22.276001,19.619019 19.895996,20.497009 17.258972,20.497009 16.387024,20.497009 15.544983,20.400024 14.745972,20.221008L13.914001,21.564026C15.059998,22.161011 15.820007,23.19101 15.820007,24.358002 15.820007,26.208008 13.922974,27.707001 11.573975,27.707001 9.2319946,27.707001 7.3309937,26.208008 7.3309937,24.358002 7.3309937,22.507019 9.2319946,21.009003 11.573975,21.009003 12.133972,21.009003 12.659973,21.09201 13.143982,21.246002L13.916992,20.002014C10.786987,19.037018,8.4829712,16.76001,8.1099854,14.026001L5.8900146,14.026001C5.8519897,15.28302 4.5490112,16.296997 2.9459839,16.296997 1.315979,16.296997 0,15.253021 0,13.966003 0,12.684021 1.315979,11.639008 2.9459839,11.639008 4.3010254,11.639008 5.4390259,12.359009 5.7839966,13.34201L8.0579834,13.34201C8.0579834,13.305023 8.0510254,13.271027 8.0510254,13.229004 8.0510254,11.154999 9.1560059,9.28302 10.922974,7.9609985L8.8839722,5.9200134C8.2910156,6.2650146 7.5540161,6.4720154 6.7609863,6.4720154 4.7750244,6.4720154 3.1669922,5.2020264 3.1669922,3.632019 3.1669922,2.0630188 4.7750244,0.79299927 6.7609863,0.79299927 8.7449951,0.79299927 10.357971,2.0630188 10.357971,3.632019 10.357971,4.3059998 10.054993,4.9200134 9.5620117,5.4049988L11.635986,7.4760132C13.190979,6.5299988 15.138977,5.9609985 17.258972,5.9609985 18.642029,5.9609985 19.958008,6.2030029 21.13501,6.6370239L23.385986,3.4920044C22.848022,3.125 22.51001,2.5899963 22.51001,1.9880066 22.51001,0.89199829 23.638977,0 25.026978,0z" />
  </g>
</svg>

